<svg width="34" height="34" viewBox="0 0 34 34" fill="none" xmlns="http://www.w3.org/2000/svg">
<g clip-path="url(#clip0_973_16229)">
<path d="M20.7712 14.1716C21.0316 13.9112 21.0316 13.4891 20.7712 13.2288C20.5109 12.9684 20.0888 12.9684 19.8284 13.2288L17 16.0572L14.1716 13.2288C13.9112 12.9684 13.4891 12.9684 13.2288 13.2288C12.9684 13.4891 12.9684 13.9112 13.2288 14.1716L16.0572 17L13.2288 19.8284C12.9684 20.0888 12.9684 20.5109 13.2288 20.7712C13.4891 21.0316 13.9112 21.0316 14.1716 20.7712L17 17.9428L19.8284 20.7712C20.0888 21.0316 20.5109 21.0316 20.7712 20.7712C21.0316 20.5109 21.0316 20.0888 20.7712 19.8284L17.9428 17L20.7712 14.1716Z" fill="#5BA542"/>
</g>
<rect x="17" y="1.44363" width="22" height="22" rx="11" transform="rotate(45 17 1.44363)" stroke="#5BA542" stroke-width="2"/>
<defs>
<clipPath id="clip0_973_16229">
<rect x="17" y="0.0294189" width="24" height="24" rx="12" transform="rotate(45 17 0.0294189)" fill="white"/>
</clipPath>
</defs>
</svg>
