<svg width="40" height="24" viewBox="0 0 40 24" fill="none" xmlns="http://www.w3.org/2000/svg">
<rect x="8" width="24" height="24" rx="12" fill="#5BA542"/>
<path d="M20.6667 7.33335C20.6667 6.96516 20.3683 6.66669 20.0001 6.66669C19.6319 6.66669 19.3334 6.96516 19.3334 7.33335V11.3334H15.3334C14.9652 11.3334 14.6667 11.6318 14.6667 12C14.6667 12.3682 14.9652 12.6667 15.3334 12.6667H19.3334V16.6667C19.3334 17.0349 19.6319 17.3334 20.0001 17.3334C20.3683 17.3334 20.6667 17.0349 20.6667 16.6667V12.6667H24.6667C25.0349 12.6667 25.3334 12.3682 25.3334 12C25.3334 11.6318 25.0349 11.3334 24.6667 11.3334H20.6667V7.33335Z" fill="#FAFAFA"/>
</svg>
