<svg fill="none" xmlns="http://www.w3.org/2000/svg" viewBox="0 0 726 1707">
  <mask id="a" fill="#fff">
    <path d="M498.098.670044c-8.533.800046-9.733 3.333376-4.533 9.733356 2.4 2.9334 5.2 7.6 6.4 10.4001 3.733 9.0666-.267 27.8665-8.4 38.5333l-3.6 4.7999 5.067 4.1334 5.066 4.2666-5.066 6.9334c-2.667 3.8667-5.334 6.9333-5.734 6.9333-.533 0-10.4-3.3333-22-7.3333-20.133-7.0667-21.466-7.3334-28.666-6.1333-6.667 1.1999-8 .9333-10.934-1.3334-9.466-7.3333-9.2-7.2-14-4.6666-2.533 1.3333-5.2 4.2666-6.133 6.4-2.133 5.1999-1.867 17.6.667 30.1332l1.866 9.867-5.866 13.466c-3.2 7.467-5.867 13.734-5.867 14 0 .267-2.267-1.333-4.933-3.6-6.4-4.933-17.334-10.8-20.534-10.8-1.333 0-7.866 4.534-14.4 10l-12 10-6.133 19.734c-8.667 27.866-9.067 28.8-12 29.333-7.733 1.067-8.533 1.733-10.933 7.867-1.334 3.6-2.134 7.333-1.867 8.4.133 1.066 3.333 8.4 6.8 16.266 6.4 14 6.533 14.534 5.733 24l-.8 9.734-8.8 9.333c-5.333 5.733-11.066 13.867-14.8 20.667-3.2 6.266-9.733 17.066-14.4 24l-8.533 12.666 1.2 12.4 1.067 12.267-12.267 8.667c-11.867 8.4-12.4 8.666-22.933 9.466-10.534.934-10.667.934-10.134 4.4 2.934 19.2 3.467 34.134 1.467 49.734-1.067 9.066-2.4 23.866-2.933 33.066-.8 15.2-1.067 16.934-3.867 19.334-1.867 1.466-4 6.133-5.333 10.666-1.334 4.934-9.2 20.267-20.267 39.867l-18.133 32 4.533 3.733c2.533 2.134 7.067 5.467 10 7.334 5.333 3.466 5.6 3.866 6.4 12.266 1.467 16.4.933 23.467-2.667 32.934-1.866 5.066-3.866 9.733-4.4 10.266-.666.667-8.533-.533-17.6-2.4-22.266-4.666-35.866-4.4-42.8.934-3.466 2.666-33.2 41.066-36.8 47.466-2.8 5.067-3.2 6.934-2.4 13.867.8 7.867.667 8-6.2662 18.8-8.2667 13.067-8.5334 16.667-2.4 34.667l4 11.866-4.1334 8.134c-3.7333 7.6-4 8.8-3.2 17.866.8 8.8.6667 10.267-2.4 15.467l-3.2 5.6 5.3334 22.533 5.4666 22.4-4.9333 31.6c-2.6667 17.334-4.8 32.667-4.8 34.134 0 3.6 17.0669 20.533 21.9999 21.733 2.933.8 5.467 3.733 10.933 12.4l7.067 11.467-4.8 17.2c-2.667 9.466-5.467 17.866-6.267 18.666-.933.8-7.2 2.934-13.9996 4.534l-12.2666 2.933.8 4.93c2.6666 15.34 6.4 29.6 11.2 41.74 7.2002 18.53 6.9332 29.06-1.2 36.26-2.4 2.27-2.8 4-2.8 13.47 0 6.13-.4 12.93-.8 15.2-1.7334 8.4-22 24.13-31.0667 24.13-1.7333 0-5.2 1.6-7.7333 3.47l-4.5334 3.47 2.6667 2.93c4.6667 4.93 2.5333 10.8-6.9333 19.47l-8 7.33 3.4666 19.2c2 10.53 3.3334 19.6 2.9334 20.13-.4.54-1.3334 5.74-2 11.47-.8 6-2.5334 12-3.8667 13.87-1.3333 1.86-3.2 5.73-4.1333 8.66-2.2667 6.94-3.7334 8.67-7.4667 8.67-4 0-5.4667-2.93-7.4667-14.93-.8-5.34-2-10.27-2.5333-10.8-.5333-.67-2.5333-.14-4.5333 1.2-1.8667 1.2-5.46669 3.2-7.73335 4.4-3.86667 1.86-4.400003 2.93-5.066669 9.46-.533334 4.8-.133334 9.87 1.066669 14.54 1.6 5.46 1.6 7.86.53333 10.4-2.133333 4.66-1.733333 10.93 1.06667 17.33 1.73333 3.73 2.4 7.2 1.86666 10.93-.53333 3.34 0 7.34 1.33334 10.67 2.13333 5.2 2.13333 5.33-1.33334 7.87-2.26666 1.73-3.2 3.33-2.66666 4.8.93333 2.4 5.6 2.93 6.93333.8.4-.67 1.73332-1.34 2.93332-1.34 1.4667 0 1.8667.8 1.2 2.67-.4 1.47-1.2 3.87-1.6 5.33-1.2 3.74 2.8 4.94 6.1333 2 3.8667-3.46 3.2-1.73-1.3333 4-3.8667 4.94-5.2 8.67-2.9333 8.67.6666 0 4.9333-2.93 9.7333-6.67 4.6667-3.6 9.6-6.66 10.8-6.66 3.6 0 7.7333 6.4 7.7333 12 0 2.8-1.2 8.93-2.6666 13.6-1.4667 4.53-2.6667 10.93-2.6667 13.86 0 4.14-1.2 7.34-4.8 12.54-5.2 7.46-5.3333 6.4 1.4667 15.46.8 1.2.5333 2.54-1.0667 4.27-3.4667 3.87-2.8 7.07 3.2 14.27 4.6667 5.73 5.3333 7.2 4.6667 11.33-2.5334 16.13-2.5334 19.2.4 22.67l2.8 3.33 2.5333-3.2 2.4-3.2.9333 5.2c.5334 2.8 1.0667 7.33 1.2 9.87.1334 2.53 1.2 6.13 2.2667 8 2.4 4.26 11.6 27.2 13.3333 33.33.6667 2.67 4 7.87 7.2 11.73 9.0667 10.54 11.4667 14.4 11.4667 18 0 4.14 6.1333 10.27 10.2667 10.27 2.1333 0 3.6 1.07 4.4 3.47 1.8662 4.93 1.6002 14.26-.5334 17.2-1.7333 2.4-2.5333 2.4-7.6 1.06-3.2-.8-6.2666-1.2-6.8-.93-.6666.4-1.0666 3.2-1.0666 6.13 0 4.67.9333 6.4 6.1333 12 10.5333 11.34 5.2 17.74-6.9333 8.4-11.7334-8.8-12.5334-4-2.8 16.67 4 8.4 8 17.73 8.9333 20.67.9333 2.93 3.2 7.2 4.9333 9.6 1.8667 2.4 3.6 6.93 4 10 .5334 4.13 2.1334 7.33 5.9996 11.46 6 6.54 5.467 8.4-2.666 11.87-5.7336 2.4-6.2669 4.4-3.7336 12 2.8 8.13 2.6667 8.4-1.2 8.4-3.8666 0-6.2666 3.73-4.5333 6.93.9333 1.74 2 2 5.6.94 6.2669-1.74 6.5329-1.74 15.0669 4.13 9.2 6.13 11.333 6.4 19.333 2.13 3.333-1.6 8.933-3.46 12.533-4 3.6-.53 10.267-2.26 14.934-3.6l8.533-2.66 4 3.33c3.067 2.67 5.6 3.47 10.267 3.47 7.6 0 8.266-.4 12.933-7.87 4.933-7.87 4.667-12.4-1.067-24-2.666-5.47-4.933-11.87-4.933-14.13 0-8.4 13.6-29.87 21.6-34.14 2.133-1.2 3.2-.8 5.733 2 3.6 3.87 10.934 4.8 12.134 1.6.4-1.06-.534-3.73-2.134-5.86-5.733-7.74-2.266-10.54 13.734-10.8 6.933-.14 8.933-.54 8.933-2.14 0-2.66.933-2.53 4.8.54 2.4 1.86 4.533 2.4 7.733 1.86 2.667-.4 4.8-.13 5.334.8 1.466 2.27 6.533 1.74 13.466-1.2 9.334-4 12.267-3.46 18.134 2.8 5.6 6.14 8.4 6.14 10.533.27.8-2.13 3.6-5.6 6.267-7.87 4.533-4 4.933-4.93 6.533-16.4.933-6.66 2.667-14 3.867-16.4 1.2-2.4 4-8.93 6.133-14.4 2.267-5.46 5.733-12.26 8-14.93 5.6-7.2 7.333-11.2 5.333-13.47-1.2-1.46-1.066-4 .534-10.8 1.466-6.26 1.733-9.6.666-11.46-1.866-3.47-1.866-3.74 2.667-4.67 4.667-1.07 5.067-3.47 2-12-1.067-2.93-2-7.47-2-10.13 0-6.4 3.733-16.94 7.6-21.6 4-4.94 4.267-16.8.4-23.2l-2.533-4.27 5.466-6.93 5.6-6.94-3.333-2.53c-1.733-1.47-3.067-3.73-2.8-4.93.133-1.2-1.467-4-3.733-6.14-4.4-4.26-4.934-6.26-2-8.66 1.466-1.2 2.666-1.07 5.866 1.2 2.134 1.6 4.8 2.8 6 2.8 3.2 0 2.667-6.8-.8-12.8-2.666-4.54-2.666-5.07-.666-6.54 1.866-1.33 2-2.4.8-6.13-.8-2.53-1.867-5.6-2.534-6.8-1.066-1.73-.533-2.27 2.267-2.67 5.6-.66 6.8-4.13 3.467-10-2.534-4.53-2.667-5.33-.934-7.73 1.734-2.4 1.6-2.8-1.733-4.4-3.2-1.73-3.333-2.13-1.333-3.6 3.066-2.27 2.8-3.2-1.067-4.67-4.8-1.86-4.133-3.6 2.533-6.8 8.534-4 9.6-5.6 6.4-10.13-6.133-8.53-8.133-9.47-22.533-10.93-9.333-.94-14.8-.94-17.2-.14-4.133 1.6-5.2 1.07-4-2 1.333-3.6 4.933-3.86 22-1.33 25.733 3.87 31.2 2.8 33.733-6.67l1.467-5.6 10.133-1.2c9.067-1.06 10.134-1.46 10.534-4.26.4-2.14 1.333-2.94 3.733-2.94 3.733 0 3.867-.66 1.2-5.33-2.533-4.53-2.4-5.73.533-4.13 2.934 1.6 4.134.66 4.134-3.47 0-2.8 6.4-13.6 8.133-13.73.933 0 5.2 16.8 5.2 20.53 0 2.4.267 2.4 3.2-.4 3.333-3.2 4.8-6.13 7.333-15.87 2.134-7.73 8.934-15.33 12.934-14.4 1.6.4 3.866.4 5.066 0 3.6-1.33 7.467-9.73 7.467-16 0-4.93-.4-5.86-2.533-5.86-3.334 0-4.4-1.74-3.067-5.2.933-2.67 1.333-2.54 6.267 2.53 2.8 2.93 6 5.33 6.933 5.33 2 0 9.467-7.73 10.533-10.93.8-2.8-4.666-10.53-9.466-13.07-3.2-1.73-3.734-1.6-6.8 1.74-1.867 2-4.534 3.6-6 3.6-1.467 0-4.534.93-6.8 2.13-7.734 4-14-2.53-7.734-8.13 2.534-2.4 2.667-2.27 2.667.4 0 4.26 6.267 4 8-.27.667-2 2.667-3.6 5.067-4.13 2.266-.4 4.533-2.14 5.333-4 .8-1.74 3.867-4.94 6.8-7.07 6.4-4.67 12.4-11.47 11.867-13.6-.667-2.53 5.866-6.67 11.6-7.6 6.266-.93 8.666-2.53 8.666-5.87 0-2-.933-2.26-7.333-1.6-5.067.54-7.333.27-7.333-.8 0-.8 1.333-1.46 3.066-1.46 5.067 0 6.534-2.54 3.467-6.4-2.667-3.47-2.4-6 .4-3.2 2.133 2.13 6 2 6.8-.27.533-1.2-1.067-3.33-3.867-5.47-4.4-3.33-12.533-15.6-12.533-18.93 0-.8-.667-3.2-1.333-5.07-1.067-2.93-1.734-3.33-3.334-2-1.333 1.2-2.533 1.2-4.666 0-1.6-.93-4.267-1.2-5.867-.8-2.4.54-3.867-.66-8.4-7.6-3.067-4.53-5.333-8.4-5.067-8.66.267-.27 2.8.93 5.867 2.66 4.267 2.4 5.733 2.67 6.933 1.47 2.267-2.27-6.666-10.53-17.466-16.27-4.267-2.26-9.334-6.13-11.2-8.53-2-2.27-4.667-5.47-6-6.93-1.467-1.47-2.8-4.8-3.067-7.34-.4-4.13-.8-4.66-3.733-4.26-6.4.8-10.934 3.46-12.534 7.2l-1.6 3.73-3.6-3.73c-3.2-3.34-3.466-4.27-2.266-7.47 2.133-5.73 1.733-6.13-5.867-6.13-4 0-8.8-.54-10.8-1.34-4.267-1.6-5.867-5.2-2.933-6.93 2.8-1.47 2.8-4.93.266-8.27-1.066-1.46-2-4.8-2-7.6 0-4.13-.533-5.06-3.333-5.73-3.733-.93-4.133-3.33-1.733-10.13 1.2-3.47 1.2-4.67 0-5.07-.934-.27-1.6-3.2-1.6-6.667 0-3.333-.667-8-1.6-10.4-1.334-3.733-1.2-4.8.666-6.933 1.334-1.467 2-3.467 1.6-4.533-.4-1.067.4-3.067 2-4.4 3.6-3.334 3.467-4.267-2.133-9.467-2.667-2.667-3.867-4.533-2.8-4.533 2.667 0 1.467-18.667-1.2-20.8-2.533-2-.133-8.534 3.467-9.467 3.2-.8 3.333-1.467.4-4.667-2-2.266-2-2.4.266-2.4 1.334 0 5.067 2.8 8.134 6.134 6.266 6.666 8.533 6.666 8.533.133 0-5.733-5.6-20.933-7.6-20.933-2.8 0-2.133-11.467.933-15.734 2.934-4 7.067-21.2 6.8-28-.133-4.4 0-4.4 4-3.6 3.734.8 4 .667 3.6-2.133-.266-2.267-1.733-3.467-4.8-4.4-2.8-.8-5.2-2.667-6.533-5.2-1.067-2.267-3.733-6.4-5.867-9.333-4.8-6.667-4.8-7.867 0-13.2l3.734-4.267 2.266 4.267c1.867 3.466 10.4 9.6 13.467 9.6.533 0 .667-2 .533-4.4-.533-5.467.534-7.067 5.334-8 2.8-.534 4.266-2 5.333-4.934.8-2.266 2-3.866 2.667-3.466 2 1.2 5.6-5.2 3.866-6.934-.8-.8-2-5.2-2.666-9.6-.534-4.533-2-9.466-3.067-11.066-3.067-4.4-2.4-5.334 1.733-2.4 3.334 2.266 4.534 2.533 9.067 1.333 7.067-2 9.6-4.4 7.2-7.2-2-2.533-.667-4.533 1.6-2.267.933.934 2.667 1.6 3.867 1.6 3.2 0 8.266-7.333 7.2-10.533-.4-1.6 0-2.8 1.333-3.333 3.6-1.334 2.133-3.2-3.333-4.134l-5.2-.933 6.533-7.867c3.733-4.4 6.667-8.933 6.667-10 0-.933 1.2-1.866 2.533-1.866 1.467 0 4.533-1.6 6.8-3.6l4.267-3.6-2.8-2.267c-6-4.933-1.734-5.333 4.666-.533 2.4 1.866 5.2 3.333 6.134 3.2 2.933-.134 14.4-19.067 14.4-23.734 0-5.2 2.8-6.533 7.466-3.466 5.334 3.466 6.667.933 3.867-7.334-1.2-3.733-2-7.2-1.6-7.6.4-.4 2.933 2.4 5.6 6.134 2.667 3.733 5.733 6.8 6.8 6.8 2.267 0 4.533-4.267 4.267-8.267-.267-3.867 3.6-9.867 6.933-10.8 1.467-.4 3.733-2.533 4.933-4.933 2-3.467 2.934-4 6.134-3.467 5.066 1.067 8.933-3.067 8.933-9.6 0-3.6.4-4.4 1.333-2.933.667 1.066 1.334 3.333 1.334 4.933 0 1.733.533 3.067 1.066 3.067 2.267 0 4.267-3.334 4.267-6.934 0-3.066 1.2-4.533 6.4-7.733 6-3.733 9.6-8.4 9.6-12.533 0-.934 1.467-4.667 3.333-8.134 1.867-3.466 4.267-10.933 5.334-16.533 1.2-5.733 3.2-11.6 4.666-13.467 1.467-1.866 4.267-6.533 6-10.4 2.4-5.066 4-6.933 6.134-6.933 4.4 0 7.866-2.533 7.866-5.733 0-1.6 1.6-5.334 3.334-8.267 4.133-6.667 4.133-7.867 0-6.8-2.667.667-3.6.133-5.2-2.933-1.067-2.134-1.734-5.067-1.334-6.534.8-3.2-2.533-7.066-6.133-7.066-4.133 0-5.333-3.734-5.333-16.134 0-4.4-.4-4.933-4-5.6-5.067-1.066-5.334-4.533-.534-8.933 2.267-2.267 3.067-4.133 2.667-6.133-.8-2.934 5.467-10 10.4-11.734 2.4-.8 2.4-.933.133-3.466-1.866-2.134-2-2.667-.533-2.667 3.6 0 5.2-2.8 3.6-5.867-1.067-2-1.067-2.8.133-3.2 2.134-.666 1.867-3.866-.8-7.733-2-3.2-2-3.6 2-9.333 5.067-7.067 5.6-10.534 1.467-9.467-3.867 1.067-9.2-1.2-9.2-3.733 0-2.534 5.2-4.667 11.467-4.667 4.933 0 13.866-5.867 13.866-9.067 0-.8-1.466-2.933-3.333-4.533-1.733-1.467-2.933-3.333-2.533-4 1.066-1.733 11.466.133 14.133 2.533 2.133 1.867 2.667 1.867 5.733-.133 4.4-2.933 4.267-4.667-.666-5.733-2.134-.4-4-1.2-4-1.734 0-.666 1.2-.8 2.666-.4 1.467.4 3.6.267 4.8-.133 2-.8 2-1.067.134-3.2-1.2-1.333-2.267-5.867-2.8-10.933-.4-4.8-.667-9.334-.8-10-.134-.8.266-3.867.8-7.067l.933-5.733 3.6 3.466c2.667 2.534 4.8 3.467 7.467 3.067 3.466-.4 3.866-1.067 4.266-5.467l.4-5.066 6.267 5.6c3.467 2.933 7.867 6.266 10 7.333 2 1.067 3.6 2.533 3.6 3.333 0 .8 1.867 0 4.133-1.6 3.467-2.4 4-3.6 3.334-6.666-.667-3.734-.534-3.867 4.266-4 16.534-.267 31.6-1.467 33.734-2.534 1.333-.8 3.6-1.333 5.066-1.333 1.6 0 2.8-.133 2.8-.4 0-.133-2.133-6.267-4.666-13.6-3.2-9.333-7.2-17.067-13.2-26-14.8-22-16.134-26.667-11.467-40.667 2.667-8 2.933-10.933 2.4-25.866-.8-19.2-1.467-21.334-15.733-46.134l-8.4-14.666 2.4-6c1.333-3.334 2.666-8.8 2.933-12.4.933-8.534-1.733-12.4-9.2-13.867l-5.733-1.2-.4-24.267c-.267-19.466.133-25.2 1.733-29.066l2-4.934-7.733-7.466c-4.4-4.134-9.2-9.6-10.8-12.4-1.6-2.667-4.534-5.467-6.534-6.134-2.8-.9329-4.133-2.6662-5.466-7.0662-2.8-9.4667-6.4-13.2001-17.334-18.1333-15.866-7.3334-27.866-11.3334-30.933-10.4001-2 .6667-4.4-.6667-9.733-5.5999-3.867-3.4667-9.6-7.8667-12.8-9.7334-3.2-1.8667-10-7.6-15.2-12.8-5.2-5.2-12.934-11.7334-17.067-14.5334-6.267-4-7.733-5.7333-7.733-8.6666 0-4.26663-4.134-8.93338-10.134-11.46671-4.266-1.866696-7.2-1.999996-18.8-.933346zM449.832 91.0701c11.466 4.8 22.8 8.6666 25.066 8.6666 3.334 0 4.134.5333 3.867 2.2663-.267 1.867 1.2 2.8 6.933 4.134 10.267 2.533 12 4.8 2.667 3.733-8.4-1.067-31.2-9.333-35.867-12.9332-2-1.6-5.333-2.5334-9.066-2.5334-6.667 0-12.934-2.8-15.067-6.5333-1.6-3.0666-1.733-5.4667-.4-5.4667.533 0 10.267 3.8667 21.867 8.6667zM212.098 722.67c3.734 1.467 6.934 3.067 6.934 3.733 0 2.267 4.533 2.667 6.8.534 2.266-2.134 2.533-2.134 3.333.133.667 1.733 0 3.2-2.533 5.2-2.667 2.133-3.2 3.333-2.134 5.067 1.467 2.533 9.2 3.466 9.2 1.066 0-3.066 3.734-.933 5.734 3.334 3.333 6.933 2.8 8-1.867 4.133-4.933-4.133-11.2-4.533-13.067-.933-1.066 1.866-.533 5.333 2 13.6 3.334 11.466 3.467 18.266.134 21.066-2.667 2.134-7.334-1.866-8.4-7.2-.534-3.066-.134-5.466 1.333-7.6 2.667-3.866 2.8-12.933 0-16.8-1.067-1.6-4.267-4.133-7.067-5.466-2.666-1.467-5.866-3.6-6.8-4.8-1.6-2-1.6-2.4.4-3.467 3.334-1.867 2.8-3.2-3.066-8.667-2.934-2.666-4.934-5.466-4.534-6.133.8-1.2 2.667-.8 13.6 3.2zm17.6 276.667c-.4 10.263-.133 10.933 4.134 13.063 2.266 1.2 5.333 4.27 6.8 6.8 2.133 3.74 3.333 4.54 5.6 4 5.866-1.73 14.133-2.4 14.133-1.33 0 .67-2.533 3.2-5.467 5.73-4.8 4-5.733 4.27-8.8 2.94-2.8-1.34-4-1.2-6.666.66-3.067 1.87-3.6 2-5.467 0-1.2-1.06-2.4-4.66-2.933-7.73-.8-5.73-1.2-6.13-5.6-4.4-3.467 1.33-4.534-2.8-1.734-6 2.4-2.67 2.267-2.93-.666-9.33-3.467-7.47-2.4-10.67 3.6-10.67 3.066 0 3.2.4 3.066 6.267zm119.6 182.403c5.734 5.86 10 7.46 11.734 4.53.666-.93 3.333-1.07 7.333-.53 3.867.53 7.467.26 9.2-.67 2.4-1.2 4.267-.53 11.867 4 5.066 2.93 9.733 5.33 10.533 5.33.933 0 1.733-1.86 2-4.26.533-5.47 2.533-6 5.333-1.2 1.2 2.26 5.067 5.46 8.8 7.33 4.134 2.13 7.067 4.67 7.6 6.4.534 1.73 2.8 4.93 5.067 7.33 3.467 3.74 3.733 4.4 1.733 5.2-1.2.54-4.933.54-8.266.14-4.4-.4-6.667 0-8.934 1.73-2.666 2.13-3.333 2.13-5.6.53-3.466-2.66-4.533-2.4-6.266 1.47-2 4.27-6.8 4.13-7.467-.27-.267-1.73-2.4-4.4-4.667-6-2.4-1.6-8.133-6.4-12.933-10.66-4.8-4.27-10.533-8.27-12.8-8.94-2.8-.8-9.333-.13-21.333 2-16.134 2.94-25.734 4-24.4 2.67.266-.4 6.133-1.47 12.933-2.67 17.2-2.66 19.467-5.06 12.933-13.6-1.866-2.4-3.333-4.66-3.333-5.06 0-2.27 3.6-.14 8.933 5.2zm-180.8 23.33c1.467.8 4.134 3.87 5.867 6.67 2.667 4.26 4.133 5.33 7.467 5.33 3.2 0 4.266.8 5.733 4.27 2.267 5.2 1.733 6.93-4.133 13.46-5.6 6.27-5.734 9.87-.4 12.14 4 1.6 4 1.73 1.466 4-2.133 1.86-2.533 4.13-2.533 11.86 0 8.67-.4 9.74-3.467 12-1.866 1.34-4.666 4.8-6.266 7.6-2.8 4.8-3.467 5.2-15.067 7.87l-12.133 2.8-5.067 8c-2.667 4.4-5.6 8-6.267 8-2 0-1.6-6.53.8-12.93 1.2-3.2 1.867-6.14 1.467-6.54-.4-.4-3.067-1.06-5.867-1.46-6.133-.8-11.466 2.26-8.666 5.06 2.533 2.67 1.866 5.07-1.867 6-2.4.67-4.133 2.54-5.867 6.54-1.466 3.33-4.266 6.8-6.933 8.4-2.4 1.46-6.533 4.93-8.9332 7.46-5.4667 5.6-7.3334 6.14-5.2 1.47 1.2-2.53 1.2-3.73 0-4.93-1.2-1.2-3.3334-.4-8.6667 3.33-8.9333 6.13-11.6 6.4-11.6.93 0-2.26.5333-4 1.2-4 2.5333 0 17.6-13.6 21.2-18.93 3.3333-5.2 3.4667-5.6 1.0667-6.93-10.8-6.54-11.2-9.6-2.1334-20 6.9336-7.87 7.0666-8.4 6.6666-14.54-.133-2.93 1.2-4.93 6.8-10 3.733-3.46 7.333-6.4 7.867-6.66 2-.8 7.733 6.66 8.533 11.06 2 10.54 14.267 17.47 16.267 9.2 1.6-6.53-.4-20.13-4-27.2-2.8-5.33-3.467-8.53-3.467-16 0-10 1.333-11.73 4-5.33 1.067 2.53 2.667 4 4.267 4 2.533 0 2.533-1.07.133-7.73-.4-.94.4-1.6 2-1.6 2.933 0 8.8 6.26 10.267 10.8.666 1.86 1.866 2.53 3.733 2.26 2.667-.4 2.933-1.2 2.8-8.8-.133-7.86 0-8.26 3.067-8.26 1.733 0 4.4.66 5.866 1.33zm126.667 14.13c1.2 1.47 2.933 1.87 5.733 1.2 10.134-2.13 13.6-2.13 16.134-.13 2.666 1.87 2.533 2-2 6.8-6.267 6.67-10.667 8.67-18.4 8.67-8.4 0-11.867-2.4-9.6-6.67 2-3.73.666-4.8-8-6-7.334-1.07-11.067-2.8-8-3.87 8.266-2.8 21.866-2.8 24.133 0zm-48.133 51.47c-.134 2.93-5.334 26.4-7.334 32.67-.8 2.4-.133 3.46 3.867 5.86 2.667 1.47 4.8 3.07 4.8 3.47 0 .4-1.6 2.13-3.467 3.87-2.266 2.13-4.266 2.93-6.266 2.4-2.4-.54-4 .4-7.2 4.4-6.267 7.86-11.067 18.53-12 26.13-1.2 10.13-18.934 46.93-23.734 49.2-2.933 1.33-3.733 1.2-4.8-.4-2.266-3.6-1.2-8 4.134-16.93 4.533-7.47 5.2-9.6 4.4-12.94-2.4-9.33-.934-15.73 8-33.6 4.8-9.46 9.866-20.93 11.333-25.33 3.733-11.33 5.733-14.67 14.8-25.6 4.533-5.33 8.133-10.4 8.133-11.33 0-1.87 2.667-4.8 4.267-4.8.533 0 1.067 1.33 1.067 2.93z"/>
  </mask>
  <path d="M498.098.670044c-8.533.800046-9.733 3.333376-4.533 9.733356 2.4 2.9334 5.2 7.6 6.4 10.4001 3.733 9.0666-.267 27.8665-8.4 38.5333l-3.6 4.7999 5.067 4.1334 5.066 4.2666-5.066 6.9334c-2.667 3.8667-5.334 6.9333-5.734 6.9333-.533 0-10.4-3.3333-22-7.3333-20.133-7.0667-21.466-7.3334-28.666-6.1333-6.667 1.1999-8 .9333-10.934-1.3334-9.466-7.3333-9.2-7.2-14-4.6666-2.533 1.3333-5.2 4.2666-6.133 6.4-2.133 5.1999-1.867 17.6.667 30.1332l1.866 9.867-5.866 13.466c-3.2 7.467-5.867 13.734-5.867 14 0 .267-2.267-1.333-4.933-3.6-6.4-4.933-17.334-10.8-20.534-10.8-1.333 0-7.866 4.534-14.4 10l-12 10-6.133 19.734c-8.667 27.866-9.067 28.8-12 29.333-7.733 1.067-8.533 1.733-10.933 7.867-1.334 3.6-2.134 7.333-1.867 8.4.133 1.066 3.333 8.4 6.8 16.266 6.4 14 6.533 14.534 5.733 24l-.8 9.734-8.8 9.333c-5.333 5.733-11.066 13.867-14.8 20.667-3.2 6.266-9.733 17.066-14.4 24l-8.533 12.666 1.2 12.4 1.067 12.267-12.267 8.667c-11.867 8.4-12.4 8.666-22.933 9.466-10.534.934-10.667.934-10.134 4.4 2.934 19.2 3.467 34.134 1.467 49.734-1.067 9.066-2.4 23.866-2.933 33.066-.8 15.2-1.067 16.934-3.867 19.334-1.867 1.466-4 6.133-5.333 10.666-1.334 4.934-9.2 20.267-20.267 39.867l-18.133 32 4.533 3.733c2.533 2.134 7.067 5.467 10 7.334 5.333 3.466 5.6 3.866 6.4 12.266 1.467 16.4.933 23.467-2.667 32.934-1.866 5.066-3.866 9.733-4.4 10.266-.666.667-8.533-.533-17.6-2.4-22.266-4.666-35.866-4.4-42.8.934-3.466 2.666-33.2 41.066-36.8 47.466-2.8 5.067-3.2 6.934-2.4 13.867.8 7.867.667 8-6.2662 18.8-8.2667 13.067-8.5334 16.667-2.4 34.667l4 11.866-4.1334 8.134c-3.7333 7.6-4 8.8-3.2 17.866.8 8.8.6667 10.267-2.4 15.467l-3.2 5.6 5.3334 22.533 5.4666 22.4-4.9333 31.6c-2.6667 17.334-4.8 32.667-4.8 34.134 0 3.6 17.0669 20.533 21.9999 21.733 2.933.8 5.467 3.733 10.933 12.4l7.067 11.467-4.8 17.2c-2.667 9.466-5.467 17.866-6.267 18.666-.933.8-7.2 2.934-13.9996 4.534l-12.2666 2.933.8 4.93c2.6666 15.34 6.4 29.6 11.2 41.74 7.2002 18.53 6.9332 29.06-1.2 36.26-2.4 2.27-2.8 4-2.8 13.47 0 6.13-.4 12.93-.8 15.2-1.7334 8.4-22 24.13-31.0667 24.13-1.7333 0-5.2 1.6-7.7333 3.47l-4.5334 3.47 2.6667 2.93c4.6667 4.93 2.5333 10.8-6.9333 19.47l-8 7.33 3.4666 19.2c2 10.53 3.3334 19.6 2.9334 20.13-.4.54-1.3334 5.74-2 11.47-.8 6-2.5334 12-3.8667 13.87-1.3333 1.86-3.2 5.73-4.1333 8.66-2.2667 6.94-3.7334 8.67-7.4667 8.67-4 0-5.4667-2.93-7.4667-14.93-.8-5.34-2-10.27-2.5333-10.8-.5333-.67-2.5333-.14-4.5333 1.2-1.8667 1.2-5.46669 3.2-7.73335 4.4-3.86667 1.86-4.400003 2.93-5.066669 9.46-.533334 4.8-.133334 9.87 1.066669 14.54 1.6 5.46 1.6 7.86.53333 10.4-2.133333 4.66-1.733333 10.93 1.06667 17.33 1.73333 3.73 2.4 7.2 1.86666 10.93-.53333 3.34 0 7.34 1.33334 10.67 2.13333 5.2 2.13333 5.33-1.33334 7.87-2.26666 1.73-3.2 3.33-2.66666 4.8.93333 2.4 5.6 2.93 6.93333.8.4-.67 1.73332-1.34 2.93332-1.34 1.4667 0 1.8667.8 1.2 2.67-.4 1.47-1.2 3.87-1.6 5.33-1.2 3.74 2.8 4.94 6.1333 2 3.8667-3.46 3.2-1.73-1.3333 4-3.8667 4.94-5.2 8.67-2.9333 8.67.6666 0 4.9333-2.93 9.7333-6.67 4.6667-3.6 9.6-6.66 10.8-6.66 3.6 0 7.7333 6.4 7.7333 12 0 2.8-1.2 8.93-2.6666 13.6-1.4667 4.53-2.6667 10.93-2.6667 13.86 0 4.14-1.2 7.34-4.8 12.54-5.2 7.46-5.3333 6.4 1.4667 15.46.8 1.2.5333 2.54-1.0667 4.27-3.4667 3.87-2.8 7.07 3.2 14.27 4.6667 5.73 5.3333 7.2 4.6667 11.33-2.5334 16.13-2.5334 19.2.4 22.67l2.8 3.33 2.5333-3.2 2.4-3.2.9333 5.2c.5334 2.8 1.0667 7.33 1.2 9.87.1334 2.53 1.2 6.13 2.2667 8 2.4 4.26 11.6 27.2 13.3333 33.33.6667 2.67 4 7.87 7.2 11.73 9.0667 10.54 11.4667 14.4 11.4667 18 0 4.14 6.1333 10.27 10.2667 10.27 2.1333 0 3.6 1.07 4.4 3.47 1.8662 4.93 1.6002 14.26-.5334 17.2-1.7333 2.4-2.5333 2.4-7.6 1.06-3.2-.8-6.2666-1.2-6.8-.93-.6666.4-1.0666 3.2-1.0666 6.13 0 4.67.9333 6.4 6.1333 12 10.5333 11.34 5.2 17.74-6.9333 8.4-11.7334-8.8-12.5334-4-2.8 16.67 4 8.4 8 17.73 8.9333 20.67.9333 2.93 3.2 7.2 4.9333 9.6 1.8667 2.4 3.6 6.93 4 10 .5334 4.13 2.1334 7.33 5.9996 11.46 6 6.54 5.467 8.4-2.666 11.87-5.7336 2.4-6.2669 4.4-3.7336 12 2.8 8.13 2.6667 8.4-1.2 8.4-3.8666 0-6.2666 3.73-4.5333 6.93.9333 1.74 2 2 5.6.94 6.2669-1.74 6.5329-1.74 15.0669 4.13 9.2 6.13 11.333 6.4 19.333 2.13 3.333-1.6 8.933-3.46 12.533-4 3.6-.53 10.267-2.26 14.934-3.6l8.533-2.66 4 3.33c3.067 2.67 5.6 3.47 10.267 3.47 7.6 0 8.266-.4 12.933-7.87 4.933-7.87 4.667-12.4-1.067-24-2.666-5.47-4.933-11.87-4.933-14.13 0-8.4 13.6-29.87 21.6-34.14 2.133-1.2 3.2-.8 5.733 2 3.6 3.87 10.934 4.8 12.134 1.6.4-1.06-.534-3.73-2.134-5.86-5.733-7.74-2.266-10.54 13.734-10.8 6.933-.14 8.933-.54 8.933-2.14 0-2.66.933-2.53 4.8.54 2.4 1.86 4.533 2.4 7.733 1.86 2.667-.4 4.8-.13 5.334.8 1.466 2.27 6.533 1.74 13.466-1.2 9.334-4 12.267-3.46 18.134 2.8 5.6 6.14 8.4 6.14 10.533.27.8-2.13 3.6-5.6 6.267-7.87 4.533-4 4.933-4.93 6.533-16.4.933-6.66 2.667-14 3.867-16.4 1.2-2.4 4-8.93 6.133-14.4 2.267-5.46 5.733-12.26 8-14.93 5.6-7.2 7.333-11.2 5.333-13.47-1.2-1.46-1.066-4 .534-10.8 1.466-6.26 1.733-9.6.666-11.46-1.866-3.47-1.866-3.74 2.667-4.67 4.667-1.07 5.067-3.47 2-12-1.067-2.93-2-7.47-2-10.13 0-6.4 3.733-16.94 7.6-21.6 4-4.94 4.267-16.8.4-23.2l-2.533-4.27 5.466-6.93 5.6-6.94-3.333-2.53c-1.733-1.47-3.067-3.73-2.8-4.93.133-1.2-1.467-4-3.733-6.14-4.4-4.26-4.934-6.26-2-8.66 1.466-1.2 2.666-1.07 5.866 1.2 2.134 1.6 4.8 2.8 6 2.8 3.2 0 2.667-6.8-.8-12.8-2.666-4.54-2.666-5.07-.666-6.54 1.866-1.33 2-2.4.8-6.13-.8-2.53-1.867-5.6-2.534-6.8-1.066-1.73-.533-2.27 2.267-2.67 5.6-.66 6.8-4.13 3.467-10-2.534-4.53-2.667-5.33-.934-7.73 1.734-2.4 1.6-2.8-1.733-4.4-3.2-1.73-3.333-2.13-1.333-3.6 3.066-2.27 2.8-3.2-1.067-4.67-4.8-1.86-4.133-3.6 2.533-6.8 8.534-4 9.6-5.6 6.4-10.13-6.133-8.53-8.133-9.47-22.533-10.93-9.333-.94-14.8-.94-17.2-.14-4.133 1.6-5.2 1.07-4-2 1.333-3.6 4.933-3.86 22-1.33 25.733 3.87 31.2 2.8 33.733-6.67l1.467-5.6 10.133-1.2c9.067-1.06 10.134-1.46 10.534-4.26.4-2.14 1.333-2.94 3.733-2.94 3.733 0 3.867-.66 1.2-5.33-2.533-4.53-2.4-5.73.533-4.13 2.934 1.6 4.134.66 4.134-3.47 0-2.8 6.4-13.6 8.133-13.73.933 0 5.2 16.8 5.2 20.53 0 2.4.267 2.4 3.2-.4 3.333-3.2 4.8-6.13 7.333-15.87 2.134-7.73 8.934-15.33 12.934-14.4 1.6.4 3.866.4 5.066 0 3.6-1.33 7.467-9.73 7.467-16 0-4.93-.4-5.86-2.533-5.86-3.334 0-4.4-1.74-3.067-5.2.933-2.67 1.333-2.54 6.267 2.53 2.8 2.93 6 5.33 6.933 5.33 2 0 9.467-7.73 10.533-10.93.8-2.8-4.666-10.53-9.466-13.07-3.2-1.73-3.734-1.6-6.8 1.74-1.867 2-4.534 3.6-6 3.6-1.467 0-4.534.93-6.8 2.13-7.734 4-14-2.53-7.734-8.13 2.534-2.4 2.667-2.27 2.667.4 0 4.26 6.267 4 8-.27.667-2 2.667-3.6 5.067-4.13 2.266-.4 4.533-2.14 5.333-4 .8-1.74 3.867-4.94 6.8-7.07 6.4-4.67 12.4-11.47 11.867-13.6-.667-2.53 5.866-6.67 11.6-7.6 6.266-.93 8.666-2.53 8.666-5.87 0-2-.933-2.26-7.333-1.6-5.067.54-7.333.27-7.333-.8 0-.8 1.333-1.46 3.066-1.46 5.067 0 6.534-2.54 3.467-6.4-2.667-3.47-2.4-6 .4-3.2 2.133 2.13 6 2 6.8-.27.533-1.2-1.067-3.33-3.867-5.47-4.4-3.33-12.533-15.6-12.533-18.93 0-.8-.667-3.2-1.333-5.07-1.067-2.93-1.734-3.33-3.334-2-1.333 1.2-2.533 1.2-4.666 0-1.6-.93-4.267-1.2-5.867-.8-2.4.54-3.867-.66-8.4-7.6-3.067-4.53-5.333-8.4-5.067-8.66.267-.27 2.8.93 5.867 2.66 4.267 2.4 5.733 2.67 6.933 1.47 2.267-2.27-6.666-10.53-17.466-16.27-4.267-2.26-9.334-6.13-11.2-8.53-2-2.27-4.667-5.47-6-6.93-1.467-1.47-2.8-4.8-3.067-7.34-.4-4.13-.8-4.66-3.733-4.26-6.4.8-10.934 3.46-12.534 7.2l-1.6 3.73-3.6-3.73c-3.2-3.34-3.466-4.27-2.266-7.47 2.133-5.73 1.733-6.13-5.867-6.13-4 0-8.8-.54-10.8-1.34-4.267-1.6-5.867-5.2-2.933-6.93 2.8-1.47 2.8-4.93.266-8.27-1.066-1.46-2-4.8-2-7.6 0-4.13-.533-5.06-3.333-5.73-3.733-.93-4.133-3.33-1.733-10.13 1.2-3.47 1.2-4.67 0-5.07-.934-.27-1.6-3.2-1.6-6.667 0-3.333-.667-8-1.6-10.4-1.334-3.733-1.2-4.8.666-6.933 1.334-1.467 2-3.467 1.6-4.533-.4-1.067.4-3.067 2-4.4 3.6-3.334 3.467-4.267-2.133-9.467-2.667-2.667-3.867-4.533-2.8-4.533 2.667 0 1.467-18.667-1.2-20.8-2.533-2-.133-8.534 3.467-9.467 3.2-.8 3.333-1.467.4-4.667-2-2.266-2-2.4.266-2.4 1.334 0 5.067 2.8 8.134 6.134 6.266 6.666 8.533 6.666 8.533.133 0-5.733-5.6-20.933-7.6-20.933-2.8 0-2.133-11.467.933-15.734 2.934-4 7.067-21.2 6.8-28-.133-4.4 0-4.4 4-3.6 3.734.8 4 .667 3.6-2.133-.266-2.267-1.733-3.467-4.8-4.4-2.8-.8-5.2-2.667-6.533-5.2-1.067-2.267-3.733-6.4-5.867-9.333-4.8-6.667-4.8-7.867 0-13.2l3.734-4.267 2.266 4.267c1.867 3.466 10.4 9.6 13.467 9.6.533 0 .667-2 .533-4.4-.533-5.467.534-7.067 5.334-8 2.8-.534 4.266-2 5.333-4.934.8-2.266 2-3.866 2.667-3.466 2 1.2 5.6-5.2 3.866-6.934-.8-.8-2-5.2-2.666-9.6-.534-4.533-2-9.466-3.067-11.066-3.067-4.4-2.4-5.334 1.733-2.4 3.334 2.266 4.534 2.533 9.067 1.333 7.067-2 9.6-4.4 7.2-7.2-2-2.533-.667-4.533 1.6-2.267.933.934 2.667 1.6 3.867 1.6 3.2 0 8.266-7.333 7.2-10.533-.4-1.6 0-2.8 1.333-3.333 3.6-1.334 2.133-3.2-3.333-4.134l-5.2-.933 6.533-7.867c3.733-4.4 6.667-8.933 6.667-10 0-.933 1.2-1.866 2.533-1.866 1.467 0 4.533-1.6 6.8-3.6l4.267-3.6-2.8-2.267c-6-4.933-1.734-5.333 4.666-.533 2.4 1.866 5.2 3.333 6.134 3.2 2.933-.134 14.4-19.067 14.4-23.734 0-5.2 2.8-6.533 7.466-3.466 5.334 3.466 6.667.933 3.867-7.334-1.2-3.733-2-7.2-1.6-7.6.4-.4 2.933 2.4 5.6 6.134 2.667 3.733 5.733 6.8 6.8 6.8 2.267 0 4.533-4.267 4.267-8.267-.267-3.867 3.6-9.867 6.933-10.8 1.467-.4 3.733-2.533 4.933-4.933 2-3.467 2.934-4 6.134-3.467 5.066 1.067 8.933-3.067 8.933-9.6 0-3.6.4-4.4 1.333-2.933.667 1.066 1.334 3.333 1.334 4.933 0 1.733.533 3.067 1.066 3.067 2.267 0 4.267-3.334 4.267-6.934 0-3.066 1.2-4.533 6.4-7.733 6-3.733 9.6-8.4 9.6-12.533 0-.934 1.467-4.667 3.333-8.134 1.867-3.466 4.267-10.933 5.334-16.533 1.2-5.733 3.2-11.6 4.666-13.467 1.467-1.866 4.267-6.533 6-10.4 2.4-5.066 4-6.933 6.134-6.933 4.4 0 7.866-2.533 7.866-5.733 0-1.6 1.6-5.334 3.334-8.267 4.133-6.667 4.133-7.867 0-6.8-2.667.667-3.6.133-5.2-2.933-1.067-2.134-1.734-5.067-1.334-6.534.8-3.2-2.533-7.066-6.133-7.066-4.133 0-5.333-3.734-5.333-16.134 0-4.4-.4-4.933-4-5.6-5.067-1.066-5.334-4.533-.534-8.933 2.267-2.267 3.067-4.133 2.667-6.133-.8-2.934 5.467-10 10.4-11.734 2.4-.8 2.4-.933.133-3.466-1.866-2.134-2-2.667-.533-2.667 3.6 0 5.2-2.8 3.6-5.867-1.067-2-1.067-2.8.133-3.2 2.134-.666 1.867-3.866-.8-7.733-2-3.2-2-3.6 2-9.333 5.067-7.067 5.6-10.534 1.467-9.467-3.867 1.067-9.2-1.2-9.2-3.733 0-2.534 5.2-4.667 11.467-4.667 4.933 0 13.866-5.867 13.866-9.067 0-.8-1.466-2.933-3.333-4.533-1.733-1.467-2.933-3.333-2.533-4 1.066-1.733 11.466.133 14.133 2.533 2.133 1.867 2.667 1.867 5.733-.133 4.4-2.933 4.267-4.667-.666-5.733-2.134-.4-4-1.2-4-1.734 0-.666 1.2-.8 2.666-.4 1.467.4 3.6.267 4.8-.133 2-.8 2-1.067.134-3.2-1.2-1.333-2.267-5.867-2.8-10.933-.4-4.8-.667-9.334-.8-10-.134-.8.266-3.867.8-7.067l.933-5.733 3.6 3.466c2.667 2.534 4.8 3.467 7.467 3.067 3.466-.4 3.866-1.067 4.266-5.467l.4-5.066 6.267 5.6c3.467 2.933 7.867 6.266 10 7.333 2 1.067 3.6 2.533 3.6 3.333 0 .8 1.867 0 4.133-1.6 3.467-2.4 4-3.6 3.334-6.666-.667-3.734-.534-3.867 4.266-4 16.534-.267 31.6-1.467 33.734-2.534 1.333-.8 3.6-1.333 5.066-1.333 1.6 0 2.8-.133 2.8-.4 0-.133-2.133-6.267-4.666-13.6-3.2-9.333-7.2-17.067-13.2-26-14.8-22-16.134-26.667-11.467-40.667 2.667-8 2.933-10.933 2.4-25.866-.8-19.2-1.467-21.334-15.733-46.134l-8.4-14.666 2.4-6c1.333-3.334 2.666-8.8 2.933-12.4.933-8.534-1.733-12.4-9.2-13.867l-5.733-1.2-.4-24.267c-.267-19.466.133-25.2 1.733-29.066l2-4.934-7.733-7.466c-4.4-4.134-9.2-9.6-10.8-12.4-1.6-2.667-4.534-5.467-6.534-6.134-2.8-.9329-4.133-2.6662-5.466-7.0662-2.8-9.4667-6.4-13.2001-17.334-18.1333-15.866-7.3334-27.866-11.3334-30.933-10.4001-2 .6667-4.4-.6667-9.733-5.5999-3.867-3.4667-9.6-7.8667-12.8-9.7334-3.2-1.8667-10-7.6-15.2-12.8-5.2-5.2-12.934-11.7334-17.067-14.5334-6.267-4-7.733-5.7333-7.733-8.6666 0-4.26663-4.134-8.93338-10.134-11.46671-4.266-1.866696-7.2-1.999996-18.8-.933346zM449.832 91.0701c11.466 4.8 22.8 8.6666 25.066 8.6666 3.334 0 4.134.5333 3.867 2.2663-.267 1.867 1.2 2.8 6.933 4.134 10.267 2.533 12 4.8 2.667 3.733-8.4-1.067-31.2-9.333-35.867-12.9332-2-1.6-5.333-2.5334-9.066-2.5334-6.667 0-12.934-2.8-15.067-6.5333-1.6-3.0666-1.733-5.4667-.4-5.4667.533 0 10.267 3.8667 21.867 8.6667zM212.098 722.67c3.734 1.467 6.934 3.067 6.934 3.733 0 2.267 4.533 2.667 6.8.534 2.266-2.134 2.533-2.134 3.333.133.667 1.733 0 3.2-2.533 5.2-2.667 2.133-3.2 3.333-2.134 5.067 1.467 2.533 9.2 3.466 9.2 1.066 0-3.066 3.734-.933 5.734 3.334 3.333 6.933 2.8 8-1.867 4.133-4.933-4.133-11.2-4.533-13.067-.933-1.066 1.866-.533 5.333 2 13.6 3.334 11.466 3.467 18.266.134 21.066-2.667 2.134-7.334-1.866-8.4-7.2-.534-3.066-.134-5.466 1.333-7.6 2.667-3.866 2.8-12.933 0-16.8-1.067-1.6-4.267-4.133-7.067-5.466-2.666-1.467-5.866-3.6-6.8-4.8-1.6-2-1.6-2.4.4-3.467 3.334-1.867 2.8-3.2-3.066-8.667-2.934-2.666-4.934-5.466-4.534-6.133.8-1.2 2.667-.8 13.6 3.2zm17.6 276.667c-.4 10.263-.133 10.933 4.134 13.063 2.266 1.2 5.333 4.27 6.8 6.8 2.133 3.74 3.333 4.54 5.6 4 5.866-1.73 14.133-2.4 14.133-1.33 0 .67-2.533 3.2-5.467 5.73-4.8 4-5.733 4.27-8.8 2.94-2.8-1.34-4-1.2-6.666.66-3.067 1.87-3.6 2-5.467 0-1.2-1.06-2.4-4.66-2.933-7.73-.8-5.73-1.2-6.13-5.6-4.4-3.467 1.33-4.534-2.8-1.734-6 2.4-2.67 2.267-2.93-.666-9.33-3.467-7.47-2.4-10.67 3.6-10.67 3.066 0 3.2.4 3.066 6.267zm119.6 182.403c5.734 5.86 10 7.46 11.734 4.53.666-.93 3.333-1.07 7.333-.53 3.867.53 7.467.26 9.2-.67 2.4-1.2 4.267-.53 11.867 4 5.066 2.93 9.733 5.33 10.533 5.33.933 0 1.733-1.86 2-4.26.533-5.47 2.533-6 5.333-1.2 1.2 2.26 5.067 5.46 8.8 7.33 4.134 2.13 7.067 4.67 7.6 6.4.534 1.73 2.8 4.93 5.067 7.33 3.467 3.74 3.733 4.4 1.733 5.2-1.2.54-4.933.54-8.266.14-4.4-.4-6.667 0-8.934 1.73-2.666 2.13-3.333 2.13-5.6.53-3.466-2.66-4.533-2.4-6.266 1.47-2 4.27-6.8 4.13-7.467-.27-.267-1.73-2.4-4.4-4.667-6-2.4-1.6-8.133-6.4-12.933-10.66-4.8-4.27-10.533-8.27-12.8-8.94-2.8-.8-9.333-.13-21.333 2-16.134 2.94-25.734 4-24.4 2.67.266-.4 6.133-1.47 12.933-2.67 17.2-2.66 19.467-5.06 12.933-13.6-1.866-2.4-3.333-4.66-3.333-5.06 0-2.27 3.6-.14 8.933 5.2zm-180.8 23.33c1.467.8 4.134 3.87 5.867 6.67 2.667 4.26 4.133 5.33 7.467 5.33 3.2 0 4.266.8 5.733 4.27 2.267 5.2 1.733 6.93-4.133 13.46-5.6 6.27-5.734 9.87-.4 12.14 4 1.6 4 1.73 1.466 4-2.133 1.86-2.533 4.13-2.533 11.86 0 8.67-.4 9.74-3.467 12-1.866 1.34-4.666 4.8-6.266 7.6-2.8 4.8-3.467 5.2-15.067 7.87l-12.133 2.8-5.067 8c-2.667 4.4-5.6 8-6.267 8-2 0-1.6-6.53.8-12.93 1.2-3.2 1.867-6.14 1.467-6.54-.4-.4-3.067-1.06-5.867-1.46-6.133-.8-11.466 2.26-8.666 5.06 2.533 2.67 1.866 5.07-1.867 6-2.4.67-4.133 2.54-5.867 6.54-1.466 3.33-4.266 6.8-6.933 8.4-2.4 1.46-6.533 4.93-8.9332 7.46-5.4667 5.6-7.3334 6.14-5.2 1.47 1.2-2.53 1.2-3.73 0-4.93-1.2-1.2-3.3334-.4-8.6667 3.33-8.9333 6.13-11.6 6.4-11.6.93 0-2.26.5333-4 1.2-4 2.5333 0 17.6-13.6 21.2-18.93 3.3333-5.2 3.4667-5.6 1.0667-6.93-10.8-6.54-11.2-9.6-2.1334-20 6.9336-7.87 7.0666-8.4 6.6666-14.54-.133-2.93 1.2-4.93 6.8-10 3.733-3.46 7.333-6.4 7.867-6.66 2-.8 7.733 6.66 8.533 11.06 2 10.54 14.267 17.47 16.267 9.2 1.6-6.53-.4-20.13-4-27.2-2.8-5.33-3.467-8.53-3.467-16 0-10 1.333-11.73 4-5.33 1.067 2.53 2.667 4 4.267 4 2.533 0 2.533-1.07.133-7.73-.4-.94.4-1.6 2-1.6 2.933 0 8.8 6.26 10.267 10.8.666 1.86 1.866 2.53 3.733 2.26 2.667-.4 2.933-1.2 2.8-8.8-.133-7.86 0-8.26 3.067-8.26 1.733 0 4.4.66 5.866 1.33zm126.667 14.13c1.2 1.47 2.933 1.87 5.733 1.2 10.134-2.13 13.6-2.13 16.134-.13 2.666 1.87 2.533 2-2 6.8-6.267 6.67-10.667 8.67-18.4 8.67-8.4 0-11.867-2.4-9.6-6.67 2-3.73.666-4.8-8-6-7.334-1.07-11.067-2.8-8-3.87 8.266-2.8 21.866-2.8 24.133 0zm-48.133 51.47c-.134 2.93-5.334 26.4-7.334 32.67-.8 2.4-.133 3.46 3.867 5.86 2.667 1.47 4.8 3.07 4.8 3.47 0 .4-1.6 2.13-3.467 3.87-2.266 2.13-4.266 2.93-6.266 2.4-2.4-.54-4 .4-7.2 4.4-6.267 7.86-11.067 18.53-12 26.13-1.2 10.13-18.934 46.93-23.734 49.2-2.933 1.33-3.733 1.2-4.8-.4-2.266-3.6-1.2-8 4.134-16.93 4.533-7.47 5.2-9.6 4.4-12.94-2.4-9.33-.934-15.73 8-33.6 4.8-9.46 9.866-20.93 11.333-25.33 3.733-11.33 5.733-14.67 14.8-25.6 4.533-5.33 8.133-10.4 8.133-11.33 0-1.87 2.667-4.8 4.267-4.8.533 0 1.067 1.33 1.067 2.93z" stroke="#616161" stroke-width="2" mask="url(#a)"/>
  <path d="M392.109 1206.92l.005.01h.005c.576.9 1.205 1.58 1.746 1.99.272.2.501.32.673.37.161.05.223.02.234.02.995-.63 1.35-1.92.908-3.67-.439-1.74-1.648-3.8-3.535-5.68-2.206-2.21-4.808-3.48-6.809-3.73-1.003-.12-1.796.01-2.32.35-.495.31-.818.84-.818 1.69 0 .55.306 1.2.958 1.87.645.66 1.588 1.29 2.744 1.81 1.117.48 2.354 1.28 3.461 2.16 1.105.89 2.111 1.89 2.748 2.81zM405.687 1202.97h0-.008c-1.401.8-1.928 1.62-1.967 2.35-.039.73.412 1.59 1.486 2.46 2.138 1.75 6.389 3.26 11.875 3.73 1.6.13 2.827.02 3.695-.25.864-.28 1.316-.7 1.495-1.18.184-.5.13-1.19-.318-2.11-.446-.92-1.255-2-2.467-3.21-1.708-1.71-4.133-2.77-6.659-3.09-2.528-.33-5.111.1-7.132 1.3zM488.812 1172.09l-.005.01-.005.01c-.812 1.46-1.106 2.6-1.065 3.4.039.76.377 1.19.893 1.39.565.22 1.44.2 2.582-.21 1.13-.41 2.463-1.2 3.897-2.4.87-.74 1.447-1.43 1.768-2.03.321-.59.366-1.05.26-1.39-.102-.33-.382-.65-.949-.9-.571-.25-1.396-.4-2.49-.4-2.406 0-4.062.88-4.886 2.52zM475.723 1185.74c-2.667 1.94-4.158 3.43-4.698 4.71-.26.61-.295 1.17-.138 1.7.16.55.533 1.13 1.165 1.77.469.47.792.73 1.07.85.227.1.439.11.753-.05.351-.17.801-.54 1.437-1.21.627-.65 1.398-1.56 2.396-2.75 1.127-1.46 2.183-2.91 2.957-4.08.387-.59.699-1.1.912-1.49.106-.2.183-.36.232-.49.04-.1.051-.15.055-.16.001-.01.001-.01.001 0 0-.51-.145-.77-.318-.92-.183-.15-.507-.25-1.044-.19-1.086.12-2.732.86-4.78 2.31zM464.189 1240.89c-1.961 2.02-3.048 4.06-3.244 5.53-.098.73.03 1.25.297 1.59.258.32.724.56 1.524.56.122 0 .352-.07.7-.29.334-.21.723-.53 1.147-.93.847-.8 1.794-1.92 2.683-3.13.888-1.2 1.706-2.49 2.3-3.65.297-.57.534-1.11.696-1.58.164-.47.24-.85.24-1.12 0-.17-.04-.24-.069-.28-.028-.03-.085-.08-.213-.11-.283-.06-.772-.01-1.445.24-1.317.49-3.056 1.61-4.616 3.17zM454.258 1256.94l-.008.01h-.007c-1.533 1.02-2.393 2.23-2.623 3.26-.113.51-.073.98.103 1.37.175.4.501.77 1.019 1.05l.026.02.025.02c.153.11.493.16 1.12-.07.595-.22 1.316-.66 2.077-1.26 1.52-1.19 3.105-2.97 4.068-4.77h0l.006-.01c.406-.72.384-1.12.296-1.31-.081-.16-.321-.35-.903-.38-1.156-.06-3.111.57-5.199 2.07zM519.552 1324.59h0-.004c-.934 1.11-1.016 2.4-.452 3.52.572 1.15 1.836 2.17 3.653 2.61h.011c2.207.58 3.619.23 4.277-.53.652-.75.781-2.17-.19-4.24-.808-1.68-2.119-2.66-3.457-2.91-1.327-.24-2.747.21-3.838 1.55zM374.934 1346.85h0l.008-.01c.445-.08.868-.51 1.152-1.46.277-.93.37-2.18.272-3.54-.097-1.36-.38-2.8-.831-4.09-.453-1.29-1.063-2.4-1.79-3.13h-.005l-.005-.01c-.564-.59-1.002-1.02-1.364-1.31-.366-.29-.606-.39-.775-.42-.14-.02-.29.01-.509.17-.235.16-.509.45-.874.88-.342.4-.57.77-.706 1.15-.135.38-.189.81-.144 1.35.093 1.11.595 2.64 1.598 5.12.792 1.91 1.57 3.33 2.293 4.22.75.93 1.311 1.15 1.68 1.08zM13.7957 1355.53h.0066l.0063.01 3.2864 3.77 3.4925-2.76.0004-.01c1.5798-1.25 2.7076-2.03 3.7806-2.24 1.1354-.23 2.1125.2 3.3271 1.01 1.2608.73 1.8648.9 2.5214.64.3635-.14.7838-.43 1.3379-.94.5514-.51 1.2041-1.21 2.037-2.14h.004c4.1345-4.53 4.7371-10.8 1.6939-15.11h-.0001l-.0044-.01c-.9186-1.34-1.7593-2.24-2.6295-2.75-.8461-.49-1.7551-.63-2.8758-.36-1.1442.27-2.5089.96-4.2238 2.14-1.7098 1.17-3.7345 2.8-6.1968 4.93-2.5933 2.27-4.9184 4.42-6.5927 6.08-.8381.83-1.508 1.53-1.9658 2.05-.2299.26-.3989.47-.5077.62-.0382.06-.0654.1-.084.13.0064.03.0166.06.0327.11.038.1.0984.24.1837.4.1705.33.4248.75.7509 1.22.6514.94 1.5686 2.09 2.6192 3.21zm-3.6161-4.88c.0002 0 .0015-.01.0033-.01-.0025 0-.0034.01-.0033.01zM25.0199 1361.78h.0001l-.0078.01c-1.0753 1.27-2.4507 4-3.5654 6.85-.5533 1.41-1.0347 2.83-1.377 4.08-.3453 1.26-.5386 2.32-.5386 3.02 0 1 .1853 1.56.4184 1.81.1821.2.4904.32 1.1168.13.6374-.2 1.4842-.7 2.5501-1.53 1.0577-.83 2.2992-1.97 3.7238-3.43h.0041c2.3504-2.35 3.5388-3.72 4.027-4.86.455-1.07.3132-1.98-.275-3.55h-.0001l-.0029-.01c-.7071-1.99-1.7979-3.21-2.8791-3.63-.5325-.21-1.0724-.24-1.5981-.07-.5299.17-1.0776.54-1.5963 1.18zM517.176 1378.55l-.002.01c-2.538 3.6-4.926 5.66-7.446 5.81h-.074c-2.062.13-3.168.2-4.079.1-.934-.11-1.658-.4-2.944-.92l-.047-.01h-.002c-.603-.24-.983-.34-1.258-.32-.213.01-.404.1-.627.43-.245.36-.49.97-.77 1.96-.276.97-.573 2.27-.94 3.97h0-.002c-.271 1.16-.596 2.03-.979 2.58-.192.28-.425.52-.711.65-.307.14-.633.14-.936 0-.283-.13-.519-.36-.719-.63-.202-.28-.39-.62-.564-1.03-.347-.82-.663-1.93-.932-3.3-.258-1.03-.639-1.97-1.052-2.63-.209-.33-.411-.57-.589-.71-.18-.14-.287-.15-.334-.14h-.047c-.227.01-.676.16-1.354.52-.653.34-1.45.84-2.345 1.44-1.789 1.22-3.938 2.86-6.055 4.62-2.116 1.76-4.192 3.63-5.834 5.27-.822.83-1.531 1.59-2.081 2.25-.557.68-.927 1.22-1.098 1.6h0l-.003.01c-6.01 12.96-8.703 17.41-15.155 24.27h-.001l-7.002 7.52 2.05 6.79h0l.002.01c.237.83.464 1.63.679 2.39.934 3.28 1.664 5.85 2.205 7.91.665 2.52 1.054 4.3 1.183 5.7.131 1.43-.004 2.47-.384 3.52-.326.9-.835 1.81-1.469 2.93-.084.15-.17.3-.259.46h-.001c-1.135 2.01-1.728 3.31-1.911 4.24-.089.45-.074.78.006 1.06.079.27.235.51.49.77.562.56.99 1.53 1.28 2.61.295 1.09.467 2.37.467 3.61 0 1.06.283 2.43.755 3.79.472 1.35 1.116 2.63 1.805 3.5.767.98 1.456 2.22 1.954 3.46.495 1.23.819 2.49.819 3.52 0 .85.215 1.71.562 2.39.354.69.805 1.12 1.23 1.27H462.678c.45.18.887.41 1.141.79.282.42.264.91.082 1.4-.177.48-.531 1.05-1.043 1.71-.516.68-1.218 1.5-2.119 2.5-1.93 2.19-3.059 4.26-3.549 6.01-.492 1.75-.324 3.12.244 3.99.551.84 1.552 1.32 3.011 1.17 1.475-.15 3.388-.96 5.613-2.69h0l.01-.01c2.771-2.05 4.749-4.1 5.803-5.84.527-.87.805-1.64.859-2.26.052-.61-.107-1.07-.452-1.41-.359-.36-.502-.88-.521-1.44-.019-.57.085-1.25.291-2.04.412-1.58 1.263-3.68 2.533-6.29 2.836-5.94 5.687-9.47 11.474-14.05h.003c4.802-3.73 7.856-6.47 9.346-8.38.758-.97 1.036-1.64 1.036-2.06 0-.19-.055-.33-.158-.45-.111-.13-.304-.26-.621-.38h-.018c-.951-.39-1.665-.91-2.033-1.59-.381-.71-.339-1.49.016-2.28.349-.77 1.009-1.58 1.928-2.41.923-.83 2.133-1.7 3.616-2.61h.002c1.518-.93 3.103-2.02 4.423-3.02 1.336-1.02 2.353-1.92 2.775-2.46l.003-.01c1.206-1.52 1.639-3.12 1.464-4.28-.086-.57-.317-1.03-.657-1.34-.338-.3-.821-.5-1.481-.5-2.131 0-3.867-1.42-5.159-3.87-1.293-2.44-2.202-6.01-2.672-10.57-.605-4.99-.338-9.88.51-13.54.423-1.83.998-3.38 1.703-4.49.694-1.09 1.592-1.86 2.684-1.86h-.003s.027-.01.089-.03c.069-.03.161-.07.277-.14.233-.15.526-.36.877-.66.698-.58 1.578-1.43 2.58-2.46 2-2.07 4.449-4.87 6.827-7.76 2.378-2.9 4.678-5.88 6.381-8.31.852-1.22 1.549-2.3 2.031-3.15.241-.43.423-.8.544-1.09.127-.31.164-.49.164-.57 0-.38.161-.72.387-1.02.228-.29.542-.56.907-.8.729-.47 1.722-.86 2.836-1.07 2.276-.53 3.92-1.11 4.966-1.7.524-.3.872-.58 1.077-.83.2-.25.245-.44.23-.59-.017-.16-.111-.37-.381-.62-.27-.26-.687-.52-1.271-.79-1.168-.53-2.918-1.02-5.262-1.42-1.371-.2-2.379-.34-3.192-.35-.803-.02-1.374.08-1.879.32-.51.25-.998.67-1.594 1.38-.599.71-1.276 1.67-2.18 2.97zM382.376 1457.22h-.006c-.467.31-1.028.96-1.649 1.99-.613 1.03-1.255 2.38-1.908 4.01-1.305 3.27-2.631 7.65-3.827 12.76-1.477 6.44-4.589 15.14-7.845 22.69-1.629 3.77-3.298 7.27-4.822 10.06-1.512 2.77-2.914 4.91-4.019 5.91h0c-.943.85-2.013 2.28-3.166 4.25-1.149 1.96-2.365 4.42-3.61 7.31-2.489 5.78-5.082 13.22-7.477 21.67-2.65 9.54-3.182 14.16-3.182 29.87 0 9.81.236 15.69.889 18.74.162.76.345 1.32.542 1.71.198.39.387.57.539.64.136.07.31.08.576-.01.277-.1.618-.32 1.031-.67h.009c.291-.24.654-.67 1.072-1.29.413-.61.862-1.38 1.33-2.28.937-1.8 1.942-4.07 2.896-6.52 1.911-4.92 3.595-10.51 4.121-14.39h0c.541-3.79 2.688-11.29 4.692-16.77h.001c2.729-7.39 6.726-19.52 10.042-30.16 1.657-5.32 3.143-10.27 4.214-14.07.536-1.91.967-3.51 1.264-4.74.148-.61.262-1.12.338-1.52.079-.41.111-.68.111-.81 0-.4.151-1.16.387-2.13.242-.98.591-2.25 1.017-3.69.852-2.89 2.021-6.53 3.29-10.21h.002c2.796-7.86 5.292-15.75 6.972-21.85.84-3.05 1.473-5.65 1.839-7.57.182-.96.296-1.74.336-2.32.02-.29.02-.51.006-.68-.016-.18-.046-.22-.038-.21l-.008-.01-.007-.02c-.069-.12-.285-.3-.746-.43-.439-.13-1.012-.2-1.644-.19-1.276.01-2.67.33-3.562.93z" stroke="#616161"/>
  <circle cx="141.5" cy="1570.5" r="31.5" fill="#75BC5C"/>
  <circle cx="141.5" cy="1570.5" r="36.5" stroke="#5BA542" stroke-opacity=".2" stroke-width="10"/>
  <circle cx="261.5" cy="1419.5" r="31.5" fill="#75BC5C"/>
  <circle cx="261.5" cy="1419.5" r="36.5" stroke="#5BA542" stroke-opacity=".2" stroke-width="10"/>
  <circle cx="455.5" cy="1209.5" r="31.5" fill="#75BC5C"/>
  <circle cx="455.5" cy="1209.5" r="36.5" stroke="#5BA542" stroke-opacity=".2" stroke-width="10"/>
  <circle cx="80.5" cy="1435.5" r="31.5" fill="#75BC5C"/>
  <circle cx="80.5" cy="1435.5" r="36.5" stroke="#5BA542" stroke-opacity=".2" stroke-width="10"/>
</svg>
