<svg version="1.1" xmlns="http://www.w3.org/2000/svg"
	xmlns:xlink="http://www.w3.org/1999/xlink" x="0px" y="0px"
	viewBox="0 0 385.6 78.9" style="enable-background:new 0 0 385.6 78.9;" xml:space="preserve">
<style type="text/css">
	.st0{fill:#8C8D8D;}
	.st1{fill:#244999;}
	.st2{fill:#FFCC1B;}
	.st3{fill:#E20613;}
</style>
<g>
	<g>
		<path class="st0" d="M189.5,64.5l-0.1,0.3l-0.3-0.4C189.2,64.4,189.5,64.4,189.5,64.5"/>
		<path class="st0" d="M382.8,78.7c-3.2,0.1-6.6-0.9-9.6-0.4c3.1-3.5,2.1-8.9,2.2-13.4c-0.2-2.7-0.6-5.5-3.2-7
			c-1.8-0.6-3.8-0.3-5.1,1.2c-2.4,4-0.8,9.2-1.1,13.7c0.4,1.4,0.6,3.2,2.1,3.9l1.6,0.5c-0.1,0.7-0.9,1.2-1.4,1.7
			c-3.4,0.1-6.5-1-9.9-0.3c3.5-3.4,1.9-8.6,2.6-13c-0.3-2.7-0.1-5.9-2.8-7.4c-1.3-0.3-2.5-0.5-3.7,0.1c-4.4,3.4-2.8,10-2.9,15
			c0.4,1.1,0.5,2.5,1.7,3.2l2,0.6c-1.7,3.8-5.7,0.4-8.8,1.3l-2.4,0.2c3.9-4.4,1.7-11.2,2.2-16.9c-0.2-1.2-0.6-2.6-2-3.2l-1.2-0.3
			c0.5-2.2,2.6-1.9,4.3-2.2l4-1.6c-0.1,0.9-0.2,1.9,0,2.8c2.5-2.2,5.6-3.4,9-2.4c1.6,0.6,3.1,1.8,4.2,3.1c2.5-2.5,5.8-3.8,9.3-3.3
			c2.3,0.3,4.4,1.8,5.5,4c2.1,5.2,0,11.8,1.9,16.9c0.7,1.1,1.9,1.2,2.9,1.5C384,77.6,383.1,78.1,382.8,78.7"/>
		<path class="st0" d="M339.6,67.4c-5.3-0.2-10.4-0.5-15.3,0.5c0.2,2.7,2.1,5.3,4.6,6.7c3.5,1.7,8.4,1.2,11.5-1.1
			c-1.2,1.8-1.5,3.8-3.7,4.5c-5.1,1.1-10.8,0.4-14.5-3.3c-3.8-3.4-4.2-9-2.6-13.5c1.3-3.8,5.4-6.3,9-6.9c5.1-0.8,10.1,0.9,12.9,5.5
			c0.9,1.7,1.5,3.5,1.4,5.6L339.6,67.4z M332.4,56.9c-2.3-0.3-4.9,0-6.6,2.2c-1,1.6-2.1,3.5-1.5,5.4c3.9,0.2,9.1,0.5,13.1-0.1
			C337.3,61.3,335.6,57.9,332.4,56.9"/>
		<path class="st0" d="M317.9,78.6c-4.6-0.1-9.1-1.2-13.6-0.3c6.5-4,3.5-13.1,4-18.6c-6-0.7-11.7-0.2-17.8-0.2
			c-0.7,0.3-1.7-0.1-2,0.7c0.8,5.1-1.1,11.1,2.3,15.1c1,0.8,2.2,1.1,3.5,1.2c-1.2,3.7-5.2,1.2-7.6,1.5c-2.6-0.3-5.1-0.3-7.6,0
			c2.8-2.1,4.2-6.5,4-10.7c-0.3-7.4,0.6-15.1-0.9-22.1c-0.4-1.4-1.9-2.1-3.2-2.3c1.4-4.3,5-0.8,8-1.6l4.9-0.5
			c-4.2,3.9-3.1,10.3-3.4,15.6l0.4,0.3c6.8-0.4,12.7,0.5,19.3-0.4c0.4-3.1,0.1-6.4-0.3-9.8c-0.4-1.2-1-2.7-2.4-3.2
			c-0.4,0.1-0.7-0.2-1.1-0.3c0.8-3.8,4.8-1.1,7.2-1.6l5.6-0.5c-5.1,6.1-2.9,14.2-3.5,21.9c0.7,4.6-1,10.4,3.3,13.1l2.7,0.7
			L317.9,78.6z"/>
		<path class="st0" d="M259.3,73c3.7,1.3,8.1,3.9,12.3,1.6c1-0.7,1.9-2.1,1.4-3.5c-2.3-3-6.5-3-9.5-4.8c-1.9-1.2-3.5-3.2-3.5-5.4
			c0.1-2,0.8-3.8,2.6-5.1c3.5-2.8,8.7-1.8,12.7-0.6c0.3,1.3,0.9,2.7,1.4,4c-2.9-1.3-6.4-3.5-10-2.1c-1.1,0.8-1.8,1.9-1.5,3.2
			c2.6,3.9,8.2,2.8,11.4,6.2c2.3,2.3,1.8,6.1,0.3,8.5c-1.9,1.9-3.7,2.9-6.2,3.2c-1.8,0.3-3.3,0.2-3.3,0.2c0.1,0.3-6.3-0.8-6.3-1.1
			l-1.7-4.2L259.3,73z"/>
		<path class="st0" d="M257.9,75.8c-0.8,3.4-2.5,1.5-4.2,1.6c-1.1,0.4-2.1,0.7-3.2,1.1l-0.2-1.8c-1.4-0.1-2.6,1.1-4,1.3
			c-4.6,1.3-9.7,0.1-12.7-3.4c-3.3-3.4-3.7-9.1-2-13.4c2-4.5,7-7.1,12-7.2c2.3,0.1,4.3,0.7,6.4,1.3l0.4-0.8c-0.6-4,1.2-9-2.3-11.8
			l-1.1-0.3c0-2.7-0.1-1.4,4.9-2.2l3.7-1.5c-0.6,9.7,0,21,0,31.3c0.2,1.9-0.9,5.4,1.3,5.9C257.8,76.1,257.9,75.8,257.9,75.8
			 M250.2,73c-0.8-5.3,1.8-11.7-2.9-15.2c-2.1-1.4-5.1-1-7.3,0c-2,1.1-2.9,3-3.6,4.9c-0.7,3.7-0.5,7.8,2.4,10.4
			c2.6,2.5,7,2.4,10.2,1.1L250.2,73z"/>
		<path class="st0" d="M229.6,77.9c-3.2-0.2-6.3-1.1-9.4-0.4c3.1-4.6,2.2-11.1,1.6-16.5c-0.5-1.5-1.3-3.1-2.9-3.8
			c-2.4-0.8-5.4-0.5-7.2,1.7c-2.9,4.3-1.9,9.3-1.6,14.5c0.1,1.8,2,2.4,3.4,2.9c-1.6,3.8-5.5,0.4-8.5,1.2l-2.6,0.2
			c3.8-4.3,2-10.6,2.3-16.2c-0.2-1.5-0.4-3.1-1.8-3.9c-0.4-0.1-0.8-0.3-1.2-0.4c1.7-3.1,5.8-1.5,8.3-3.5c-0.1,1.1-0.5,2.3-0.1,3.2
			c2.8-3,6.7-3.6,10.7-3c2.4,1,5,2.2,6,4.9c1.7,4.7-0.3,10.9,1.4,15.5c0.6,1.3,2,1.5,3.1,1.8C230.8,76.8,230.2,77.4,229.6,77.9"/>
		<path class="st0" d="M195.9,77.1l-3.2,0.9c-0.2-1-0.1-2.1-0.5-3c-2.5,1.4-4.7,3.1-7.7,3.1c-3.1-0.1-6.4-1-7.6-4.2
			c-0.7-2.4-0.3-5.3,1.3-7.2c3.6-3.6,8.6-3.8,13.5-4.2c0.4-1.4-0.4-3.1-1.6-4c-2.7-2.5-7.7-1.7-10.7-0.3l-0.5,0.4
			c0.1-1.1,1.2-2.4,1.8-3.6c4.5-1.9,11-2.1,14.8,1.5c2.8,4.5,1,10.5,1.8,15.7c0.3,1.1,1.1,2.1,2.1,2.6l1.8,0.3
			C200.7,78,197.6,76.2,195.9,77.1 M192.3,65.5l-0.7-0.4c-3.8,0.1-8.1,0.8-9.7,4.7c-0.4,1.6-0.3,3.4,1.3,4.4c1.4,0.6,3,0.7,4.4,0.1
			C191,72.6,192.4,69,192.3,65.5"/>
		<path class="st0" d="M173.6,78.2c-3.3-0.3-6.8-0.8-10.1-0.2c1.2-1.6,2.2-3.3,2.6-5.3l0.1-24.7c0-2.1-0.3-4.4-2.4-5.3l-0.8-0.1
			c0.8-3.3,4.6-1.2,6.6-2.7c0.8-0.3,1.5-0.7,2.3-0.9c-1,9.9-0.3,20.8-0.4,30.8c0.3,2.3,0.1,5.2,2.6,6.3l1.3,0.3
			C175,77.1,174.1,77.7,173.6,78.2"/>
		<path class="st0" d="M154.7,57.5l-0.4,0.5c1,6.2-2.5,15.1,5.3,17l1.6,0.1c-0.5,3-3.1,2.5-5.2,3.1c-2.2,0.1-4.1-1.4-5.3-3.3
			c-2.7-5.1-0.7-11.7-1.4-17.5c-0.7-0.6-1.4-0.1-2.3-0.3c3.3-3,3.7-7.3,4.5-11.4c1.4-0.7,2.6-1.7,3.9-2.5c-0.9,3.8-1.2,7.5-0.9,11.6
			c2.1,0.3,5.2,0.1,7.4,0.1C161.2,59,157.3,56.7,154.7,57.5"/>
		<path class="st0" d="M142.2,75.1c-4.1,2.9-10.6,4.4-15.1,1.5c-4.4-2.6-6.7-7.3-6-12.5c0.6-3.8,3.2-7.8,6.9-9.4
			c4-1.9,9.9-1.8,13.4,1.1c3.6,3.3,6.3,7.9,4.7,13.1C145.4,71.3,144.2,73.4,142.2,75.1 M139.2,60.7c-1.2-2.5-3.7-4.4-6.3-4.6v-0.1
			c-2,0.4-4,0.9-5.3,2.7c-2.7,4.1-1.1,9.8,1,13.6c1,1.3,2.4,2.7,4,3c1.5,0.2,3.4,0.3,4.7-0.6C142.1,71.8,141.3,64.7,139.2,60.7"/>
		<path class="st0" d="M117.1,76.5c-8.5,1.8-19.7,4.5-27.3-1.3C83.3,70,80.9,61.9,83,53.8c1.6-5.6,6.5-10.6,12.1-12.5
			c6.1-2.1,13.9-1,19.8,0.9l0.9,5.2c-5-3.5-12.8-5.9-19.1-3c-6.4,3.3-8.8,10.5-8,17.2c0.8,5.3,4.9,11.1,10.3,12.9
			c3.9,1.1,9,1.2,12.5-0.9c-0.3-4.1,1.5-9.9-3.3-11.4l-0.8-0.1c1.6-3.6,5.8-0.9,8.6-1.7l4.3-0.4C115.5,64.3,117,70.7,117.1,76.5"/>
	</g>
	<g>
		<path class="st1" d="M30.5,33.2c-0.7,0-1.3,0.3-1.8,0.7l0,0L2.7,56.5l0,0C2,57,1.5,57.9,1.5,58.9v16.5c0,1.6,1.3,2.9,2.9,2.9h26.1
			c1.6,0,2.9-1.3,2.9-2.9V36.1C33.3,34.5,32,33.2,30.5,33.2z M28,72.9H6.8V59.4L28,41V72.9z"/>
		<path class="st2" d="M71.2,3c0-1.6-1.3-2.9-2.9-2.9c-0.7,0-1.3,0.3-1.8,0.7l0,0L40.4,23.6l0,0c-0.7,0.5-1.1,1.3-1.1,2.2
			c0,1.6,1.3,2.9,2.9,2.9h26.1c1.6,0,2.9-1.3,2.9-2.9L71.2,3z M48.2,23.3L65.9,7.9l0,15.4H48.2z"/>
		<path class="st3" d="M68.4,33.2H42.3c-1.6,0-2.9,1.3-2.9,2.9v39.2c0,1.6,1.3,2.9,2.9,2.9h26.1c1.6,0,2.9-1.3,2.9-2.9l0-39.2
			C71.2,34.5,70,33.2,68.4,33.2z M65.9,72.9H44.7V38.6h21.2L65.9,72.9z"/>
	</g>
</g>
</svg>