<svg
   xmlns:svg="http://www.w3.org/2000/svg"
   xmlns="http://www.w3.org/2000/svg"
   version="1.1"
   viewBox="-1.23105297 -1.23105297 262.50211594 43.49720494">
   <defs
      id="defs3469" />
   <path
      d="m 260.04,38.2328 c 0,1.4121 -1.2013,2.6025 -2.6138,2.6025 -1.4737,0 -2.6012,-1.1392 -2.6012,-2.6025 0,-1.4336 1.165,-2.5982 2.6012,-2.5982 1.4713,0 2.6138,1.1255 2.6138,2.5982 m -4.7613,-0.025 c 0,1.1846 0.9638,2.2125 2.1475,2.2125 1.1975,0 2.145,-0.9761 2.145,-2.1592 0,-1.1993 -0.9475,-2.2149 -2.145,-2.2149 -1.1837,0 -2.1475,0.9776 -2.1475,2.1616 m 2.6638,1.5269 -0.8475,-1.3423 -0.04,0 0,1.3423 -0.525,0 0,-3.042 0.9212,0 c 0.7275,0 1.0163,0.3008 1.0163,0.7627 0,0.5151 -0.32,0.8286 -0.8038,0.8838 0.062,0.08 0.1838,0.2495 0.3,0.4351 l 0.6338,0.9604 -0.655,0 z m -0.5413,-2.6221 -0.3462,0 0,0.9366 0.2137,0 c 0.4875,0 0.6438,-0.2774 0.6438,-0.5269 0,-0.2886 -0.1313,-0.4097 -0.5113,-0.4097"
      style="fi
      ll:#235773;fill-opacity:1;fill-rule:nonzero;stroke:none"
      id="path3367" />
   <path
      id="path3369"
      d="m 82.3125,11.8242 0,3.1543 1.0293,0 c 0.5321,0 0.8359,0.2667 0.8359,0.8359 l 0,6.75 c 0,0.7218 0.074,1.291 0.074,1.291 l -0.074,0 c 0,0 -1.4823,-2.9629 -5.9297,-2.9629 -5.0922,0 -8.7031,3.9512 -8.7031,10.0703 0,5.9673 3.2676,10.0723 8.4746,10.0723 4.7129,0 6.3086,-3.4961 6.3086,-3.4961 l 0.076,0 c 0,0 -0.037,0.418 -0.037,0.9883 0,1.292 0.683,2.0527 2.3554,2.0527 l 3.0059,0 0,-3.1543 -1.0274,0 c -0.5322,0 -0.8379,-0.2675 -0.8379,-0.8379 l 0,-22.332 c 0,-1.7105 -0.7211,-2.4316 -2.4316,-2.4316 l -3.1191,0 z m 35.9922,0 0,3.1543 1.0273,0 c 0.5323,0 0.8379,0.2667 0.8379,0.8359 l 0,24.7656 3.6855,0 0,-9.0078 c 0,-0.9116 0.078,-1.7866 0.3438,-2.5469 0.7979,-2.7743 3.1538,-4.7519 6.0801,-4.7519 3.0787,0 3.6484,2.1298 3.6484,4.8281 l 0,9.0449 c 0,1.7105 0.7216,2.4336 2.4317,2.4336 l 3.08,0 0,-3.1543 -1.0273,0 c -0.5325,0 -0.836,-0.2675 -0.836,-0.8379 l 0,-8.3222 c 0,-4.9024 -2.0517,-7.3731 -6.5742,-7.3731 -3.8387,0 -6.3101,2.4322 -7.1465,4.295 l -0.076,0 c 0,0 0.076,-0.6851 0.076,-1.5977 l 0,-9.4102 c 0,-1.6342 -0.7207,-2.3554 -2.4316,-2.3554 l -3.1191,0 z m 35.6992,0.023 -1.6485,24.3984 c -0.034,0.5581 -0.2739,0.877 -0.7539,0.877 l -1.0332,0 0,3.4336 2.92,0 c 1.5787,0 2.1279,-0.7588 2.2304,-2.5547 l 0.961,-14.8867 c 0.1037,-1.6768 0.068,-4.3242 0.068,-4.3242 l 0.068,0 c 0,0 0.7189,2.8476 1.3027,4.3242 l 4.9062,12.373 2.8829,0 4.9062,-12.373 c 0.5838,-1.5166 1.2695,-4.2832 1.2695,-4.2832 l 0.068,0 c 0,0 -0.035,2.6064 0.068,4.2832 l 0.9942,14.8867 c 0.1037,1.7959 0.6535,2.5547 2.1972,2.5547 l 2.9864,0 0,-3.4336 -1.0664,0 c -0.48,0 -0.7189,-0.3189 -0.7539,-0.877 l -1.6465,-24.3984 -3.5332,0 -5.6953,15.459 c -0.5838,1.5161 -1.2012,3.5508 -1.2012,3.5508 l -0.07,0 c 0,0 -0.6167,-2.0347 -1.1992,-3.5508 l -5.6953,-15.459 -3.5332,0 z m -60.1348,0.043 0,3.8379 3.3067,0 0,-3.8379 -3.3067,0 z m 137.8516,0 0,3.1543 1.0273,0 c 0.5325,0 0.8379,0.266 0.8379,0.8359 l 0,24.6992 3.6856,0 0,-9.0078 c 0,-0.9116 0.075,-1.7866 0.3418,-2.5469 0.7975,-2.7743 3.1545,-4.7519 6.082,-4.7519 3.0775,0 3.6484,2.1298 3.6484,4.8281 l 0,9.0449 c 0,1.7105 0.7204,2.4336 2.4317,2.4336 l 3.08,0 0,-3.1543 -1.0273,0 c -0.5312,0 -0.8359,-0.2675 -0.8359,-0.8379 l 0,-8.3222 c 0,-4.9024 -2.0537,-7.3731 -6.5762,-7.3731 -3.8388,0 -6.3083,2.4322 -7.1445,4.295 l -0.076,0 c 0,0 0.076,-0.6851 0.076,-1.5977 l 0,-9.3438 c 0,-1.6347 -0.7224,-2.3554 -2.4336,-2.3554 l -3.1172,0 z m -221.043,0.3886 c -5.4258,0 -9.3364,2.3565 -9.3984,7.5489 -0.1021,8.5874 14.3398,6.7177 14.3398,13.0801 0,2.7661 -2.6425,4.3413 -5.1719,4.3867 C 4.459,37.4029 2.3281,33.3746 2.3281,33.3746 L 0,36.2046 c 0,0 2.5752,4.8301 10.3691,4.8301 5.3671,0 9.0547,-3.7441 9.0547,-8.3398 0,-9.8711 -14.3721,-6.913 -14.2344,-12.9961 0.062,-2.7363 1.9536,-3.8349 5.4883,-3.8164 2.1465,0.012 4.1113,0.9228 4.1113,2.498 l 0,0.9082 3.5254,0 0,-1.9726 c -0.075,-3.6793 -4.7617,-5.0372 -7.6367,-5.0372 z m 191.8926,1.5293 0,6.877 -2.5859,0 0,2.9648 2.5097,0 0,9.8985 c 0,6.4233 4.9015,7.1836 7.334,7.1836 0.7987,0 1.293,-0.076 1.293,-0.076 l 0,-3.2695 c 0,0 -0.3418,0.076 -0.8731,0.076 -1.4062,0 -4.0683,-0.4936 -4.0683,-4.332 l 0,-9.4805 4.5996,0 0,-2.9648 -4.5996,0 0,-6.877 -3.6094,0 z m -144.2285,7.084 c -5.4727,0 -9.6524,3.9512 -9.6524,10.0703 0,5.7012 4.1435,10.0723 10.2246,10.0723 4.561,0 7.4102,-2.8125 7.4102,-2.8125 l -1.5977,-2.6211 c 0,0 -2.3164,2.2422 -5.623,2.2422 -3.4204,0 -6.3848,-2.3193 -6.6133,-6.4238 l 14.0234,0 c 0,0 0.1133,-1.0254 0.1133,-1.5196 0,-4.979 -2.8876,-9.0078 -8.2851,-9.0078 z m 51.1953,0 c -3.915,0 -7.1465,1.71 -7.1465,5.3965 0,6.1954 10.4902,5.815 10.4902,9.2735 0,1.6723 -1.5581,2.4707 -3.3437,2.4707 -3.5351,0 -5.8164,-2.8516 -5.8164,-2.8516 l -1.9004,2.4707 c 0,0 2.547,3.3828 7.6777,3.3828 4.0294,0 7.0703,-2.2046 7.0703,-5.625 0,-6.4233 -10.4902,-5.6249 -10.4902,-9.2734 0,-1.5205 1.4058,-2.2813 3.5723,-2.2813 1.1787,0 2.8886,0.4947 2.8886,1.6348 l 0,0.9512 3.3067,0 0,-1.8243 c 0,-2.9262 -3.9907,-3.7246 -6.3086,-3.7246 z m 79.4726,0 c -1.8625,0 -6.6503,0.5209 -6.6503,3.6758 l 0,1.7012 3.4589,0 0,-0.9688 c 0,-1.2533 2.2411,-1.4824 3.1524,-1.4824 3.0025,0 4.2578,1.2167 4.2578,4.5996 l 0,0.1895 -0.8359,0 c -3.2313,0 -11.5918,0.3794 -11.5918,6.5742 0,3.8389 3.2296,5.8535 6.5371,5.8535 4.5987,0 6.1191,-3.8008 6.1191,-3.8008 l 0.076,0 c 0,0 -0.076,0.4942 -0.076,1.1407 0,1.3676 0.6838,2.205 2.3926,2.205 l 2.9297,0 0,-3.1543 -1.0274,0 c -0.5325,0 -0.8379,-0.2675 -0.8379,-0.8379 l 0,-8.1699 c 0,-4.2569 -1.6718,-7.5254 -7.9043,-7.5254 z m 33.6856,0 c -6.1963,0 -10.3379,4.4072 -10.3379,10.0703 0,5.7774 4.218,10.0723 10.2617,10.0723 5.0938,0 7.8301,-3.3066 7.8301,-3.3066 l -1.5977,-2.6231 c 0,0 -2.3536,2.6621 -5.9648,2.6621 -3.5725,0 -6.7656,-2.4712 -6.7656,-6.8418 0,-4.0664 2.8104,-6.8789 6.5742,-6.8789 1.4062,0 3.5742,0.6085 3.5742,1.9766 l 0,0.998 3.3438,0 0,-1.9101 c 0,-3.2686 -4.6005,-4.2188 -6.918,-4.2188 z m -202.0723,0.4551 0,3.1543 0.3926,0 c 0.5249,0 0.7877,0.1533 0.9512,0.7617 l 4.3672,15.3164 3.7441,0 3.2832,-11.8886 c 0.2621,-0.9888 0.459,-1.7598 0.459,-1.7598 l 0.066,0 c 0,0 0.1962,0.771 0.459,1.7598 l 3.3164,11.8886 3.7109,0 4.3672,-15.3164 c 0.164,-0.6084 0.3594,-0.7617 0.8848,-0.7617 l 0.4609,0 0,-3.1543 -1.8379,0 c -1.477,0 -2.0688,0.4185 -2.4961,2.0527 l -2.9218,11.4395 c -0.2623,0.9878 -0.3946,2.0527 -0.3946,2.0527 l -0.064,0 c 0,0 -0.1651,-1.0649 -0.4278,-2.0527 l -3.6132,-13.416 -2.9219,0 -3.5781,13.416 c -0.2623,0.9878 -0.459,2.0527 -0.459,2.0527 l -0.066,0 c 0,0 -0.1313,-1.0649 -0.3946,-2.0527 L 24.9554,23.3999 c -0.4272,-1.6342 -0.9852,-2.0527 -2.4628,-2.0527 l -1.8692,0 z m 71.3067,0 0,3.1543 1.0273,0 c 0.5318,0 0.8359,0.267 0.8359,0.8379 l 0,12.8066 c 0,1.7105 0.7236,2.4336 2.4336,2.4336 l 3.0801,0 0,-3.1543 -1.0273,0 c -0.5318,0 -0.8379,-0.2675 -0.8379,-0.8379 l 0,-12.8066 c 0,-1.711 -0.7212,-2.4336 -2.4317,-2.4336 l -3.08,0 z m -33.625,2.4707 c 2.395,0 4.4751,1.7099 4.5898,4.9024 l -10.252,0 c 0.5703,-3.1925 2.8497,-4.9024 5.6622,-4.9024 z m 20.5136,0.2656 c 3.686,0 5.4727,3.4209 5.4727,6.8418 0,4.9029 -2.6983,6.918 -5.5488,6.918 -3.1929,0 -5.4356,-2.7007 -5.4356,-6.8809 0,-4.3706 2.5087,-6.8789 5.5117,-6.8789 z m 113.4981,7.2207 0.9492,0 0,0.6465 c 0,2.8501 -2.0127,6.1192 -5.1289,6.1192 -2.4325,0 -3.6113,-1.5196 -3.6113,-3.0782 0,-3.5346 5.0172,-3.6875 7.791,-3.6875 z"
      style="fill:#235773;fill-opacity:1;fill-rule:nonzero;stroke:none" />
   <path
      id="path3393"
      d="m 32.5039,0 -2.2754,5.8457 -6.4317,0.2929 5.0254,3.9063 -1.6992,6.0254 5.3809,-3.4297 5.3808,3.4297 L 36.1836,10.0449 41.209,6.1386 34.7773,5.8457 32.5039,0 Z m 17.5625,0 -2.2735,5.8457 -6.4316,0.2929 5.0254,3.9063 -1.6973,6.0254 5.377,-3.4297 5.3828,3.4297 L 53.748,10.0449 58.7734,6.1386 52.3418,5.8457 50.0664,0 Z m 17.5722,0 -2.2753,5.8457 -6.4297,0.2929 5.0234,3.9063 -1.6973,6.0254 5.3789,-3.4297 5.3809,3.4297 L 71.3203,10.0449 76.3457,6.1386 69.914,5.8457 67.6386,0 Z m -35.1347,0.6445 2.1074,5.418 0,0 5.9629,0.2714 -8.0723,2.545 3.4121,1.0781 1.5762,5.5898 0,0 -4.9883,-6.664 0,3.4843 -4.9883,3.1817 4.9883,-6.666 0,0 -2.1093,-2.8164 2.1093,-5.416 0,8.2324 2.1094,-2.8203 -2.1094,-5.416 0,0 z m 17.5625,0 0,8.2383 2.1094,-2.8203 0,0 5.9628,0.2714 -8.0703,2.545 3.4102,1.0781 1.5781,5.5898 0,0 -4.9902,-6.664 0,3.4824 -4.9903,3.1836 4.9903,-6.666 0,0 -2.1074,-2.8164 0,0 2.1093,-5.4219 z m 17.5722,0 0,8.2383 2.1075,-2.8184 0,0 5.9629,0.2714 -8.0704,2.545 3.4122,1.0781 1.5761,5.5898 0,0 -4.9883,-6.664 0,3.4824 -4.9902,3.1836 4.9902,-6.666 0,0 -2.1093,-2.8164 2.1093,-5.4219 z M 24.4316,6.3378 32.5,8.8828 29.0879,9.9589 24.4316,6.3378 Z m 17.5625,0 0,0 8.0664,2.545 -3.4121,1.0761 -4.6582,-3.6211 z m 17.5742,0 8.0684,2.545 -3.4121,1.0761 0,0 -4.6543,-3.6211 z"
      style="fill:#235773;fill-opacity:1;fill-rule:nonzero;stroke:none" />
</svg>